<svg xmlns="http://www.w3.org/2000/svg" viewBox="0 0 64 64">
  <defs>
    <linearGradient id="g" x1="0" y1="0" x2="1" y2="1">
      <stop offset="0%" stop-color="#dfe6f7"/>
      <stop offset="100%" stop-color="#7fd0b1"/>
    </linearGradient>
  </defs>
  <rect width="64" height="64" rx="14" fill="#13151c"/>
  <path d="M16 32c0-9.4 6.9-16 16.6-16 4.8 0 9.2 1.6 12.6 4.8l-4.1 4.5c-2.2-2-5-3.1-8.4-3.1-6 0-10.2 4-10.2 9.9 0 6 4.2 10.1 10.2 10.1 3.4 0 6.2-1.1 8.4-3.2l4.1 4.5c-3.4 3.3-7.8 4.9-12.7 4.9C22.9 48.4 16 41.5 16 32Z" fill="url(#g)"/>
</svg>
